<?xml version="1.0" standalone="no"?>
<!DOCTYPE svg PUBLIC "-//W3C//DTD SVG 20010904//EN"
 "http://www.w3.org/TR/2001/REC-SVG-20010904/DTD/svg10.dtd">
<svg version="1.0" xmlns="http://www.w3.org/2000/svg"
 width="256.000000pt" height="256.000000pt" viewBox="0 0 256.000000 256.000000"
 preserveAspectRatio="xMidYMid meet">
<metadata>
Created by potrace 1.14, written by Peter Selinger 2001-2017
</metadata>
<g transform="translate(0.000000,256.000000) scale(0.100000,-0.100000)"
fill="#000000" stroke="none">
<path d="M626 2367 c-7 -12 -90 -155 -183 -317 -255 -441 -359 -622 -381 -660
-12 -19 -30 -53 -42 -74 l-21 -39 127 -221 c203 -352 335 -580 426 -736 l84
-145 644 0 645 0 63 109 c35 60 74 128 86 151 45 80 51 90 62 105 7 8 25 40
41 70 17 30 55 98 85 150 31 52 66 114 79 136 13 23 68 119 123 213 l98 171
-63 107 c-57 98 -399 692 -454 788 -13 22 -45 78 -72 125 l-49 85 -642 2 -642
2 -14 -22z"/>
</g>
</svg>
